<mxfile host="app.diagrams.net" modified="2021-05-06T02:10:34.807Z" agent="5.0 (X11; CrOS aarch64 13816.64.0) AppleWebKit/537.36 (KHTML, like Gecko) Chrome/90.0.4430.100 Safari/537.36" etag="ViP8GSpZu7y-_2Y5-3LE" version="14.6.10" type="github">
  <diagram id="wIb2uM32SGFeo56Ag3lu" name="Page-1">
    <mxGraphModel dx="582" dy="415" grid="1" gridSize="10" guides="1" tooltips="1" connect="1" arrows="1" fold="1" page="1" pageScale="1" pageWidth="850" pageHeight="1100" math="0" shadow="0">
      <root>
        <mxCell id="0" />
        <mxCell id="1" parent="0" />
        <mxCell id="0aFzif0hjS4uQygOIBF--7" style="edgeStyle=orthogonalEdgeStyle;rounded=0;orthogonalLoop=1;jettySize=auto;html=1;exitX=0.5;exitY=1;exitDx=0;exitDy=0;exitPerimeter=0;entryX=0.5;entryY=0;entryDx=0;entryDy=0;" edge="1" parent="1" source="0aFzif0hjS4uQygOIBF--1" target="0aFzif0hjS4uQygOIBF--2">
          <mxGeometry relative="1" as="geometry" />
        </mxCell>
        <mxCell id="0aFzif0hjS4uQygOIBF--1" value="Start" style="strokeWidth=2;html=1;shape=mxgraph.flowchart.terminator;whiteSpace=wrap;" vertex="1" parent="1">
          <mxGeometry x="250" y="430" width="100" height="60" as="geometry" />
        </mxCell>
        <mxCell id="0aFzif0hjS4uQygOIBF--8" style="edgeStyle=orthogonalEdgeStyle;rounded=0;orthogonalLoop=1;jettySize=auto;html=1;exitX=0.5;exitY=1;exitDx=0;exitDy=0;entryX=0.5;entryY=0;entryDx=0;entryDy=0;entryPerimeter=0;" edge="1" parent="1" source="0aFzif0hjS4uQygOIBF--2" target="0aFzif0hjS4uQygOIBF--3">
          <mxGeometry relative="1" as="geometry" />
        </mxCell>
        <mxCell id="0aFzif0hjS4uQygOIBF--2" value="Get number" style="shape=parallelogram;html=1;strokeWidth=2;perimeter=parallelogramPerimeter;whiteSpace=wrap;rounded=1;arcSize=12;size=0.23;" vertex="1" parent="1">
          <mxGeometry x="250" y="540" width="100" height="60" as="geometry" />
        </mxCell>
        <mxCell id="0aFzif0hjS4uQygOIBF--9" style="edgeStyle=orthogonalEdgeStyle;rounded=0;orthogonalLoop=1;jettySize=auto;html=1;exitX=0.5;exitY=1;exitDx=0;exitDy=0;exitPerimeter=0;entryX=0.598;entryY=-0.046;entryDx=0;entryDy=0;entryPerimeter=0;" edge="1" parent="1" source="0aFzif0hjS4uQygOIBF--3" target="0aFzif0hjS4uQygOIBF--4">
          <mxGeometry relative="1" as="geometry" />
        </mxCell>
        <mxCell id="0aFzif0hjS4uQygOIBF--14" value="Yes" style="edgeLabel;html=1;align=center;verticalAlign=middle;resizable=0;points=[];" vertex="1" connectable="0" parent="0aFzif0hjS4uQygOIBF--9">
          <mxGeometry x="-0.3899" y="1" relative="1" as="geometry">
            <mxPoint x="-24" as="offset" />
          </mxGeometry>
        </mxCell>
        <mxCell id="0aFzif0hjS4uQygOIBF--11" style="edgeStyle=orthogonalEdgeStyle;rounded=0;orthogonalLoop=1;jettySize=auto;html=1;exitX=1;exitY=0.5;exitDx=0;exitDy=0;exitPerimeter=0;entryX=0.5;entryY=0;entryDx=0;entryDy=0;" edge="1" parent="1" source="0aFzif0hjS4uQygOIBF--3" target="0aFzif0hjS4uQygOIBF--5">
          <mxGeometry relative="1" as="geometry" />
        </mxCell>
        <mxCell id="0aFzif0hjS4uQygOIBF--15" value="No" style="edgeLabel;html=1;align=center;verticalAlign=middle;resizable=0;points=[];" vertex="1" connectable="0" parent="0aFzif0hjS4uQygOIBF--11">
          <mxGeometry x="0.4775" y="-6" relative="1" as="geometry">
            <mxPoint x="16" y="25" as="offset" />
          </mxGeometry>
        </mxCell>
        <mxCell id="0aFzif0hjS4uQygOIBF--3" value="if number = 5" style="strokeWidth=2;html=1;shape=mxgraph.flowchart.decision;whiteSpace=wrap;" vertex="1" parent="1">
          <mxGeometry x="250" y="640" width="100" height="100" as="geometry" />
        </mxCell>
        <mxCell id="0aFzif0hjS4uQygOIBF--12" style="edgeStyle=orthogonalEdgeStyle;rounded=0;orthogonalLoop=1;jettySize=auto;html=1;exitX=0.5;exitY=1;exitDx=0;exitDy=0;entryX=0.5;entryY=0;entryDx=0;entryDy=0;entryPerimeter=0;" edge="1" parent="1" source="0aFzif0hjS4uQygOIBF--4" target="0aFzif0hjS4uQygOIBF--6">
          <mxGeometry relative="1" as="geometry" />
        </mxCell>
        <mxCell id="0aFzif0hjS4uQygOIBF--4" value="print(&quot;Correct&quot;)" style="shape=parallelogram;html=1;strokeWidth=2;perimeter=parallelogramPerimeter;whiteSpace=wrap;rounded=1;arcSize=12;size=0.23;" vertex="1" parent="1">
          <mxGeometry x="280" y="780" width="100" height="60" as="geometry" />
        </mxCell>
        <mxCell id="0aFzif0hjS4uQygOIBF--13" style="edgeStyle=orthogonalEdgeStyle;rounded=0;orthogonalLoop=1;jettySize=auto;html=1;exitX=0.5;exitY=1;exitDx=0;exitDy=0;entryX=0.5;entryY=0;entryDx=0;entryDy=0;entryPerimeter=0;" edge="1" parent="1" source="0aFzif0hjS4uQygOIBF--5" target="0aFzif0hjS4uQygOIBF--6">
          <mxGeometry relative="1" as="geometry" />
        </mxCell>
        <mxCell id="0aFzif0hjS4uQygOIBF--5" value="print(&quot;Incorrect&quot;)" style="shape=parallelogram;html=1;strokeWidth=2;perimeter=parallelogramPerimeter;whiteSpace=wrap;rounded=1;arcSize=12;size=0.23;" vertex="1" parent="1">
          <mxGeometry x="460" y="780" width="100" height="60" as="geometry" />
        </mxCell>
        <mxCell id="0aFzif0hjS4uQygOIBF--6" value="Stop" style="strokeWidth=2;html=1;shape=mxgraph.flowchart.terminator;whiteSpace=wrap;" vertex="1" parent="1">
          <mxGeometry x="375" y="900" width="100" height="60" as="geometry" />
        </mxCell>
      </root>
    </mxGraphModel>
  </diagram>
</mxfile>
